<svg xmlns="http://www.w3.org/2000/svg" width="320" height="200" viewBox="0 0 320 200" role="img" aria-labelledby="title desc">
  <title id="title">ESPP Return Calculator</title>
  <desc id="desc">Illustration showing a chart and calculator for ESPP returns.</desc>
  <defs>
    <linearGradient id="bg" x1="0" y1="0" x2="1" y2="1">
      <stop offset="0%" stop-color="#6c63ff"/>
      <stop offset="100%" stop-color="#4f46e5"/>
    </linearGradient>
  </defs>
  <rect width="320" height="200" rx="20" fill="url(#bg)"/>
  <rect x="28" y="28" width="164" height="108" rx="12" fill="#ffffff" opacity="0.95"/>
  <rect x="44" y="44" width="132" height="10" rx="5" fill="#e5e7eb"/>
  <polyline points="44,112 72,92 100,100 128,74 156,82 176,60" fill="none" stroke="#4f46e5" stroke-width="6" stroke-linecap="round" stroke-linejoin="round"/>
  <circle cx="176" cy="60" r="5" fill="#22c55e"/>
  <rect x="206" y="58" width="86" height="114" rx="12" fill="#0f172a" opacity="0.95"/>
  <rect x="220" y="74" width="58" height="16" rx="4" fill="#1e293b"/>
  <g fill="#334155">
    <rect x="220" y="98" width="16" height="16" rx="3"/>
    <rect x="241" y="98" width="16" height="16" rx="3"/>
    <rect x="262" y="98" width="16" height="16" rx="3"/>
    <rect x="220" y="119" width="16" height="16" rx="3"/>
    <rect x="241" y="119" width="16" height="16" rx="3"/>
    <rect x="262" y="119" width="16" height="16" rx="3"/>
    <rect x="220" y="140" width="37" height="16" rx="3"/>
    <rect x="262" y="140" width="16" height="16" rx="3"/>
  </g>
  <text x="28" y="172" font-family="Arial, Helvetica, sans-serif" font-size="18" font-weight="700" fill="#ffffff">ESPP Return Calculator</text>
</svg>

